<svg width="98" height="60" viewBox="0 0 98 60" fill="none" xmlns="http://www.w3.org/2000/svg">
<rect width="98" height="60" rx="8" fill="#1DD1A1"/>
<path d="M65.5 31.75V21.5C65.5 15.1487 60.3513 10 54 10H42C31.2304 10 22.5 18.7304 22.5 29.5C22.5 40.2696 31.2304 49 42 49H73.75C76.6495 49 79 46.6495 79 43.75C79 40.8505 76.6495 38.5 73.75 38.5H72.25C68.5221 38.5 65.5 35.4779 65.5 31.75Z" fill="#1E1E1E"/>
<path d="M36.8563 9.688C41.0003 9.688 44.6216 10.5093 47.7203 12.152C50.8189 13.7947 53.2083 16.1093 54.8883 19.096C56.6056 22.0453 57.4643 25.4613 57.4643 29.344C57.4643 33.1893 56.6056 36.6053 54.8883 39.592C53.2083 42.5787 50.8003 44.8933 47.6643 46.536C44.5656 48.1787 40.9629 49 36.8563 49H22.1283V9.688H36.8563ZM36.2403 40.712C39.8616 40.712 42.6803 39.7227 44.6963 37.744C46.7123 35.7653 47.7203 32.9653 47.7203 29.344C47.7203 25.7227 46.7123 22.904 44.6963 20.888C42.6803 18.872 39.8616 17.864 36.2403 17.864H31.7043V40.712H36.2403Z" fill="white"/>
</svg>
